<?xml version="1.0" encoding="UTF-8"?>
<svg data-bbox="41.32 20.98 248.827 134.04" viewBox="0 0 340.08 175.92" xmlns="http://www.w3.org/2000/svg" data-type="color">
    <g>
        <path fill="#a2a569" d="m84.46 67.77 32.16-46.79-64.24.18z" data-color="1"/>
        <path fill="#413c31" d="M155.1 75.51h4.08l-24.61-36.49h-3.91l-24.77 36.41h3.9l22.95-33.92z" data-color="2"/>
        <path fill="#413c31" d="M199.87 38.93h4.08l-24.61 36.5h-3.91l-24.77-36.41h3.9l22.95 33.92z" data-color="2"/>
        <path fill="#413c31" d="M214.88 38.93v36.66h-3.41V38.93z" data-color="2"/>
        <path fill="#413c31" d="M229.59 72.98V56.43h18.33v-2.49h-18.33V41.51h21.04v-2.49h-23.96v36.41h.92v.04h23.12v-2.49z" data-color="2"/>
        <path d="M288.04 70.36c-.17-2.87.49-6.29-.75-8.65-2.08-3.95-5.32-3.91-5.32-3.91l-.41-.09v-.04c3.95-.39 7.03-3.74 7.03-7.81v-2.92c0-4.33-4.87-7.74-7.81-7.85h-12.45c-.17 0-.33.02-.49.03h-6.07v2.43h.04v34h2.72V59.09h15.75c.55.13 1.57.45 2.27 1.12 1 .96 1.21.91 1.87 2.45.8 1.86 1.12 3.24 1.12 5.2s-.08 4.12.08 5.11c.17 1 .75 2.58.75 2.58h3.12s-1.29-2.33-1.45-5.2Zm-2.12-22.66v2.42c0 3.54-3.41 6.41-7.65 6.49h-13.74V41.56h15.6c3.03.77 5.79 3.17 5.79 6.14" fill="#413c31" data-color="2"/>
        <path d="M171.03 107.41c-1.64-.17-3.3.02-4.86.55l-.1.04c-1.26.43-2.83 1.57-3.65 2.61l-1.99 3.03-.4-6.21h-2.4v28.45h3.1v-16.36l-.02-.3.62-2.27c.29-1.08.81-2.09 1.51-2.97l.29-.36c.9-1.12 2.04-2.02 3.33-2.64 1.14-.55 2.33-.78 3.59-.63l3.26.4.72-3.05-3-.3Z" fill="#413c31" data-color="2"/>
        <path fill="#413c31" d="m260.56 135.98 4.32-.01-12.48-16.65 11.72-11.72h-4.68l-13.46 14.08V92.89h-2.79v43h2.79v-10.15l4.21-4.2z" data-color="2"/>
        <path d="M224.28 107.1h-1.77c-1.64 0-3.26.41-4.69 1.2-2.31 1.28-4.79 3.67-5.41 4.52l-.34-5.27h-2.4V136h3.1l-.07-20.28.1-.6c0-.33 3.25-3.44 5.49-4.51.94-.45 1.99-.88 3.03-.98h1.78c3.81 0 6.89 3.09 6.89 6.9v19.53h2.88v-20.37c0-4.75-3.85-8.59-8.59-8.59" fill="#413c31" data-color="2"/>
        <path d="M287.16 122.22c-1.29-.88-2.76-1.46-4.27-1.9s-.23-.07-.23-.07c-.03 0-.05-.02-.08-.02h-.04l-4.2-1.06c-1.06-.22-2.1-.57-3.04-1.1-2-1.11-2.36-2.25-2.13-4.26.04-.3.12-.59.21-.88.05-.16.11-.31.19-.45 1.41-2.53 3.33-3.13 5.17-3.18.65-.02 1.8.07 2.05.11l1.05.1c.83.15 3.14.58 3.94.85l1.82.76.91-2.52-6.51-1.55c-.39-.06-2.16-.2-3.16-.17-2.83.08-5.78.99-7.95 4.87-.13.23-.23.48-.31.72-.14.44-.27.89-.33 1.36-.37 3.1.19 4.86 3.28 6.57 1.46.81 3.06 1.35 4.69 1.69l2.25.47 1.8.58c1.04.29 2.07.68 2.96 1.29 1.45 1 2.21 2.4 1.85 4.39-.05.3-.16.58-.27.86-.06.15-.13.3-.22.44-1.57 2.44-3.66 3.28-5.47 3.5-4.57.54-6.03-.11-6.28-.17l-2.7-.96-1.37-.5-.91 2.87 3.12 1.19c1.57.43 3.2.48 4.82.51 1.4.03 2.6 0 3.24-.08 4.61-.62 5.86-1.38 8.27-5.11.15-.22.44-.83.54-1.08.17-.43.25-.88.28-1.33.17-2.99-.9-5.32-2.99-6.75Z" fill="#413c31" data-color="2"/>
        <path d="M199.84 114.09c-.05-.46-.18-.91-.33-1.36-.08-.25-.18-.87-.3-1.1-2.17-3.89-5.14-4.33-7.96-4.5-5.26-.32-7.15.87-7.54.93l-3.57 1.7 1.58 2.16 2.6-1.31c.8-.27 2.3-.7 3.13-.85l1.45-.17c.25-.04 1.81-.06 2.46-.04 1.84.05 3.63.79 5.04 3.32.08.14.3.88.35 1.04.04.13.11.65.18 1.21v4.61l-9.15.12c-6.61.75-9.27 5.57-8.57 9.58s4.84 6.55 8.98 6.42c3.91-.12 5.99-1.56 6.53-2.08.77-.74 1.54-1.32 2.23-1.87l.67 3.96h2.4v-18.37c.08-1.07-.04-2.23-.18-3.43Zm-2.88 15.27c.02.25-1.02 1.09-1.95 1.96-.59.56-1.4 1.04-2.16 1.32-2.87 1.07-2.88 1.03-5.03 1.18-2.88.2-5.43-1.85-5.93-4.69-.54-3.1 2.32-6.65 5.97-7.27H197s-.08 7.13-.04 7.5" fill="#413c31" data-color="2"/>
        <path d="m89.62 75.81 25.6-36.92h-10.93L84.46 67.78 52.38 21.16H41.32l38.15 54.49-27.17 38.56h10.77l21.47-30.76 20.77 30.76h16.86v40.81h9.17v-40.81h15.09v-7.42h-15.09v-9.31c0-1.46-.04-4.43 2.08-6.66 2.12-2.24 5.29-2.65 6.64-2.69 6.83-.19 8.84 4.18 10.15 6.32l6.25-3.64c-.78-1.76-3.2-10.21-17.56-10.73-5.05-.18-10.42 2.05-13.35 5.23-2.05 2.12-3.36 6.02-3.36 9.96v11.51l-10.81.03-21.74-31.02Z" fill="#413c31" data-color="2"/>
    </g>
</svg>
